<?xml version="1.0" standalone="no"?>
<!DOCTYPE svg PUBLIC "-//W3C//DTD SVG 20010904//EN"
 "http://www.w3.org/TR/2001/REC-SVG-20010904/DTD/svg10.dtd">
<svg version="1.0" xmlns="http://www.w3.org/2000/svg"
 width="543.000000pt" height="516.000000pt" viewBox="0 0 543.000000 516.000000"
 preserveAspectRatio="xMidYMid meet">
<metadata>
Created by potrace 1.16, written by Peter Selinger 2001-2019
</metadata>
<g transform="translate(0.000000,516.000000) scale(0.100000,-0.100000)"
fill="#000000" stroke="none">
<path d="M30 4604 c0 -302 -2 -675 -4 -829 -3 -154 -3 -266 0 -250 34 230 73
360 169 561 161 339 417 618 746 813 116 69 324 160 382 167 12 1 67 11 122
22 169 35 297 45 475 39 285 -10 513 -63 723 -168 l77 -39 68 34 c162 81 382
143 584 165 162 18 395 11 488 -14 14 -3 44 -8 67 -10 23 -1 45 -5 50 -8 5 -3
46 -15 91 -26 166 -43 348 -123 497 -219 323 -207 602 -545 728 -882 120 -318
143 -790 56 -1135 -55 -216 -168 -448 -306 -628 -101 -131 -380 -397 -436
-416 -7 -2 -14 -7 -17 -10 -3 -3 -18 -14 -35 -23 -28 -16 -31 -22 -42 -110
-24 -188 -64 -328 -154 -541 -67 -158 -203 -359 -342 -504 -99 -104 -336 -303
-361 -303 -3 0 -59 -28 -124 -62 -208 -111 -427 -176 -657 -196 -98 -8 1161
-22 2021 -22 l502 0 6 1293 c3 710 9 1862 12 2558 l6 1266 -1478 7 c-814 3
-2027 9 -2696 12 l-1218 7 0 -549z"/>
<path d="M1720 4800 c-142 -13 -363 -61 -376 -81 -3 -5 -15 -9 -28 -9 -50 0
-270 -123 -381 -213 -85 -69 -193 -178 -264 -267 -82 -102 -103 -136 -166
-260 -26 -52 -53 -107 -61 -121 -8 -15 -15 -35 -17 -45 -2 -11 -9 -31 -15 -45
-18 -45 -33 -109 -27 -119 3 -5 1 -11 -4 -14 -13 -9 -29 -116 -37 -246 -18
-323 80 -659 272 -926 57 -80 261 -302 268 -292 2 1 11 44 20 93 10 50 33 136
52 191 44 133 143 342 167 352 4 2 7 10 7 18 0 8 5 14 10 14 6 0 10 7 10 15 0
8 4 15 8 15 5 0 15 12 23 28 8 15 17 29 20 32 15 12 109 130 110 137 0 4 53
56 117 115 114 105 210 182 284 226 35 22 36 25 43 95 19 201 84 423 184 626
47 96 99 183 114 189 4 2 7 7 7 12 0 4 11 21 24 36 13 16 59 70 101 121 41 51
109 123 150 161 l75 69 -102 31 c-129 39 -184 49 -328 62 -126 11 -136 11
-260 0z"/>
<path d="M3449 4800 c-107 -10 -230 -34 -332 -67 l-78 -24 130 -135 c72 -75
131 -139 131 -144 0 -5 25 -44 56 -87 56 -78 108 -164 157 -258 27 -54 87
-213 92 -248 2 -12 15 -76 29 -142 14 -66 29 -159 32 -207 l7 -87 41 -27 c76
-50 221 -172 291 -246 80 -84 125 -135 125 -143 0 -10 74 -105 82 -105 4 0 8
-6 8 -13 0 -7 9 -23 20 -35 11 -12 20 -26 20 -31 0 -5 6 -16 13 -23 21 -22
134 -269 161 -353 30 -94 65 -247 66 -290 l1 -30 24 28 c13 15 28 27 33 27 16
0 172 170 239 260 122 166 223 397 258 595 26 142 30 340 11 484 -21 154 -67
329 -107 403 -7 12 -13 31 -14 41 -1 11 -8 23 -15 27 -8 5 -15 16 -16 24 -8
52 -151 245 -268 362 -205 204 -414 323 -700 401 -89 24 -159 36 -220 39 -49
2 -91 6 -94 9 -7 6 -72 4 -183 -5z"/>
<path d="M2665 4489 c-104 -84 -239 -229 -340 -364 -32 -43 -135 -241 -135
-260 0 -6 -5 -16 -11 -22 -23 -23 -84 -226 -74 -243 2 -4 44 4 92 17 174 47
264 57 498 57 257 0 359 -15 617 -91 15 -5 16 0 2 59 -21 92 -64 229 -81 256
-8 13 -16 33 -18 44 -3 11 -10 28 -17 37 -7 9 -23 36 -36 62 -12 25 -47 77
-77 116 -29 39 -52 73 -49 75 7 8 -177 198 -192 198 -8 0 -14 4 -14 10 0 10
-97 90 -108 90 -4 -1 -29 -19 -57 -41z"/>
<path d="M2610 3354 c-158 -10 -319 -44 -452 -96 l-78 -29 0 -50 c0 -73 28
-222 62 -329 81 -254 238 -490 458 -685 114 -101 105 -101 207 -13 312 265
513 644 535 1012 l3 49 -66 28 c-188 80 -460 126 -669 113z"/>
<path d="M16 1582 c-4 -849 -6 -1545 -4 -1547 2 -1 581 -5 1288 -8 788 -3
1250 -2 1195 3 -335 34 -654 159 -888 347 -43 35 -80 63 -83 63 -4 0 -24 20
-46 45 -22 24 -51 50 -66 57 -15 7 -32 25 -39 39 -7 15 -33 45 -58 68 -25 23
-45 44 -45 46 0 3 -22 33 -49 68 -99 127 -193 291 -246 433 -48 127 -105 410
-105 519 0 40 -3 45 -48 74 -27 17 -59 42 -72 56 -13 14 -29 25 -36 25 -6 0
-14 7 -18 15 -3 9 -14 19 -23 23 -32 13 -256 256 -325 353 -169 237 -274 497
-312 774 -10 75 -13 -161 -20 -1453z"/>
<path d="M1634 2905 c-161 -162 -255 -298 -343 -495 -37 -82 -83 -274 -94
-390 l-7 -65 61 -30 c34 -16 66 -29 72 -27 5 2 17 -4 26 -12 21 -19 190 -62
306 -77 124 -16 383 -6 503 20 82 17 220 58 231 67 2 2 -47 57 -110 121 -63
65 -135 145 -161 178 -181 238 -292 488 -343 770 l-12 70 -129 -130z"/>
<path d="M3644 2953 c-26 -180 -118 -417 -235 -606 -74 -119 -132 -190 -262
-324 l-119 -122 38 -16 c53 -22 214 -62 299 -75 90 -13 330 -12 420 1 39 5 88
12 110 14 48 5 197 50 240 73 17 9 33 16 37 17 25 1 26 55 3 195 -23 136 -62
256 -127 390 -33 69 -63 127 -67 130 -13 10 -51 70 -51 80 0 5 -4 10 -10 10
-5 0 -10 6 -10 13 0 7 -25 40 -55 72 -30 33 -55 62 -55 65 0 3 -20 26 -45 50
-25 24 -45 40 -45 36 0 -5 -9 3 -21 18 -11 14 -24 26 -29 26 -5 0 -12 -21 -16
-47z"/>
<path d="M2650 1655 c-179 -96 -447 -163 -720 -181 -198 -12 -497 29 -653 90
l-67 26 6 -28 c17 -77 27 -114 50 -184 14 -43 25 -81 25 -85 0 -23 120 -232
176 -307 77 -103 314 -346 337 -346 3 0 17 -11 32 -25 15 -14 31 -25 36 -25 5
0 19 -9 30 -20 32 -29 209 -115 303 -146 142 -47 249 -65 425 -71 193 -6 329
10 492 58 104 31 368 153 368 170 0 5 6 9 14 9 7 0 25 11 40 25 15 14 31 25
35 25 5 0 33 23 62 50 29 28 56 50 60 50 14 0 133 136 206 235 74 99 211 358
217 407 1 13 5 28 8 33 10 16 38 129 33 133 -2 2 -50 -8 -107 -22 -111 -28
-119 -29 -339 -47 -324 -27 -678 37 -930 167 -37 19 -73 34 -80 34 -8 -1 -34
-12 -59 -25z"/>
</g>
</svg>
